<svg width="343" height="48" viewBox="0 0 343 48" fill="none" xmlns="http://www.w3.org/2000/svg">
<path d="M4.8348 46.5767C0.613053 44.534 -0.223504 41.7811 2.32511 38.3181C9.27056 28.8435 16.3716 19.4662 23.6284 10.1861C27.7723 4.87488 31.4688 1.69398 34.7177 0.643412C40.457 -1.22427 45.7098 0.974149 50.4763 7.23867C61.3322 21.4992 68.9003 31.7131 73.1804 37.8803C74.6784 40.0399 75.3788 41.8978 75.2815 43.4542C75.1259 46.1779 73.1804 47.316 69.445 46.8686C68.973 46.8128 68.5184 46.6653 68.1075 46.4348C67.6966 46.2043 67.3378 45.8954 67.052 45.5262L42.6846 13.9798C39.922 10.3807 37.1885 10.3223 34.4843 13.8047L9.8542 45.4386C9.27837 46.1797 8.46338 46.6982 7.54812 46.9057C6.63286 47.1132 5.67395 46.997 4.8348 46.5767Z" fill="black"/>
<path d="M77.1199 11.7036C73.0149 11.4313 71.5072 9.61221 72.5966 6.24649C73.0267 4.90457 73.8596 3.73553 74.9731 2.91094C76.0866 2.08634 77.422 1.64961 78.7833 1.66483L148.792 2.24848C149.262 2.25741 149.724 2.36309 150.151 2.55892C150.578 2.75475 150.96 3.03652 151.273 3.3866C156.02 8.56164 154.22 11.3729 145.874 11.8204C137.314 12.3067 128.754 12.7056 120.193 13.0168C119.796 13.031 119.418 13.1924 119.137 13.4684C118.855 13.7445 118.691 14.1149 118.676 14.5052L117.509 43.892C117.49 44.3652 117.36 44.8219 117.13 45.2198C116.901 45.6176 116.579 45.9439 116.195 46.1682C113.802 47.5884 111.701 47.5009 109.892 45.9056C108.725 44.8745 108.112 43.2013 108.053 40.8862C107.898 33.4349 107.869 25.3222 107.966 16.5479C107.975 15.9442 107.859 15.3451 107.627 14.7877C107.395 14.2304 107.05 13.7268 106.615 13.3081C106.18 12.8894 105.664 12.5646 105.098 12.3539C104.532 12.1432 103.929 12.0509 103.326 12.083C95.3298 12.4721 86.5945 12.3456 77.1199 11.7036Z" fill="black"/>
<path d="M245.62 26.0323C245.62 31.7132 243.363 37.1615 239.346 41.1785C235.329 45.1955 229.881 47.4523 224.2 47.4523H182.702C177.022 47.4523 171.573 45.1955 167.556 41.1785C163.539 37.1615 161.282 31.7132 161.282 26.0323V23.0557C161.282 17.3747 163.539 11.9265 167.556 7.90945C171.573 3.89242 177.022 1.63568 182.702 1.63568H224.2C229.881 1.63568 235.329 3.89242 239.346 7.90945C243.363 11.9265 245.62 17.3747 245.62 23.0557V26.0323ZM235.273 22.69C235.25 19.989 234.154 17.4079 232.227 15.5147C230.301 13.6214 227.701 12.571 225 12.5946L181.636 12.9731C178.935 12.9967 176.354 14.0923 174.461 16.0189C172.568 17.9454 171.517 20.5452 171.541 23.2462L171.571 26.6898C171.595 29.3908 172.69 31.9718 174.617 33.8651C176.543 35.7584 179.143 36.8087 181.844 36.7852L225.208 36.4067C227.909 36.3831 230.49 35.2875 232.383 33.3609C234.276 31.4344 235.327 28.8346 235.303 26.1336L235.273 22.69Z" fill="black"/>
<path d="M268.266 17.8027C266.632 15.8767 265.776 16.1199 265.698 18.5323C265.484 26.2559 265.241 33.9699 264.968 41.6741C264.774 46.8491 262.4 48.3569 257.848 46.1974C257.467 46.0106 257.143 45.712 256.907 45.3324C256.671 44.9529 256.532 44.506 256.505 44.0379C256.019 33.9991 255.834 23.9505 255.951 13.8923C256.009 9.5538 256.846 6.43127 258.46 4.52467C260.503 2.1317 263.178 1.3535 266.486 2.19006C268.49 2.67644 270.562 4.10639 272.702 6.4799C280.503 15.0207 288.742 23.9311 297.419 33.2111C297.68 33.4888 297.995 33.7098 298.344 33.8601C298.694 34.0103 299.07 34.0865 299.449 34.0837C299.828 34.081 300.201 33.9994 300.545 33.8441C300.889 33.6889 301.196 33.4634 301.446 33.1819C309.832 23.7852 318.343 14.7677 326.981 6.12971C332.526 0.604481 336.962 0.225109 340.288 4.99159C341.884 7.26783 342.749 10.6433 342.886 15.1179C343.158 24.7287 342.944 34.3201 342.244 43.8919C342.208 44.3855 342.07 44.8538 341.841 45.2558C341.612 45.6577 341.299 45.981 340.93 46.1974C338.674 47.5398 336.514 47.3549 334.452 45.6429C334.076 45.34 333.77 44.9619 333.553 44.534C333.337 44.1061 333.215 43.6384 333.197 43.1624L332.322 21.5089C332.185 17.6374 330.901 17.1218 328.469 19.9622C321.174 28.503 313.625 36.7811 305.824 44.7966C302.925 47.7927 299.618 48.4833 295.902 46.8686C294.015 46.0709 291.661 44.1449 288.84 41.0904C281.797 33.4835 274.939 25.7209 268.266 17.8027Z" fill="black"/>
<path d="M38.3655 42.5203C41.9919 42.5203 44.9316 39.5806 44.9316 35.9543C44.9316 32.3279 41.9919 29.3882 38.3655 29.3882C34.7392 29.3882 31.7995 32.3279 31.7995 35.9543C31.7995 39.5806 34.7392 42.5203 38.3655 42.5203Z" fill="black"/>
</svg>
